<svg width="48" height="48" viewBox="0 0 48 48" fill="none" xmlns="http://www.w3.org/2000/svg">
<path d="M10 14C10 12.8954 10.8954 12 12 12H36C37.1046 12 38 12.8954 38 14C38 15.1046 37.1046 16 36 16H12C10.8954 16 10 15.1046 10 14Z" fill="white"/>
<path d="M10 24C10 22.8954 10.8954 22 12 22H36C37.1046 22 38 22.8954 38 24C38 25.1046 37.1046 26 36 26H12C10.8954 26 10 25.1046 10 24Z" fill="white"/>
<path d="M10 34C10 32.8954 10.8954 32 12 32H36C37.1046 32 38 32.8954 38 34C38 35.1046 37.1046 36 36 36H12C10.8954 36 10 35.1046 10 34Z" fill="white"/>
<rect x="0.5" y="0.5" width="47" height="47" rx="7.5" stroke="white" stroke-opacity="0.45"/>
</svg>
