
<svg width="20" height="16" viewBox="0 0 20 16" fill="none" xmlns="http://www.w3.org/2000/svg">
<path fill-rule="evenodd" clip-rule="evenodd" d="M3.03399 2.05857C2.26592 2.75224 1.76687 3.83284 1.99496 5.42928C2.22335 7.02783 3.26497 8.68522 4.80439 10.3478C6.25868 11.9184 8.10965 13.4437 9.99999 14.874C11.8903 13.4437 13.7413 11.9184 15.1956 10.3478C16.7351 8.68521 17.7767 7.02783 18.005 5.4293C18.2331 3.83285 17.734 2.75224 16.9659 2.05856C16.1767 1.34572 15.055 1 14 1C12.132 1 11.0924 2.08479 10.5177 2.68443C10.4581 2.7466 10.4035 2.80356 10.3535 2.85355C10.1583 3.04882 9.84169 3.04882 9.64643 2.85355C9.59644 2.80356 9.54185 2.7466 9.48227 2.68443C8.9076 2.08479 7.868 1 5.99999 1C4.94498 1 3.82328 1.34573 3.03399 2.05857ZM2.36374 1.31643C3.37372 0.404274 4.75205 0 5.99999 0C8.07126 0 9.34542 1.11257 9.99999 1.77862C10.6545 1.11257 11.9287 0 14 0C15.2479 0 16.6262 0.404275 17.6362 1.31644C18.6674 2.24776 19.2669 3.66715 18.995 5.5707C18.7233 7.47217 17.515 9.31479 15.9294 11.0272C14.3355 12.7486 12.3064 14.3952 10.3 15.9C10.1222 16.0333 9.87776 16.0333 9.69999 15.9C7.69356 14.3952 5.66446 12.7485 4.07063 11.0272C2.48506 9.31478 1.27668 7.47217 1.00501 5.57072C0.733043 3.66716 1.33253 2.24776 2.36374 1.31643Z" fill="black"/>
</svg>
