<svg width="24" height="24" viewBox="0 0 24 24" fill="none" xmlns="http://www.w3.org/2000/svg">
<g opacity="0.4">
<path fill-rule="evenodd" clip-rule="evenodd" d="M9.93382 3.70286C6.44752 3.70286 3.62132 6.52907 3.62132 10.0154C3.62132 13.5017 6.44752 16.3279 9.93382 16.3279C13.4201 16.3279 16.2463 13.5017 16.2463 10.0154C16.2463 6.52907 13.4201 3.70286 9.93382 3.70286ZM1.93799 10.0154C1.93799 5.59939 5.51784 2.01953 9.93382 2.01953C14.3498 2.01953 17.9296 5.59939 17.9296 10.0154C17.9296 14.4313 14.3498 18.0112 9.93382 18.0112C5.51784 18.0112 1.93799 14.4313 1.93799 10.0154Z" fill="white"/>
<path fill-rule="evenodd" clip-rule="evenodd" d="M13.9602 14.8988C14.2846 14.5659 14.8175 14.559 15.1504 14.8834L21.1959 20.7751C21.5288 21.0995 21.5357 21.6324 21.2112 21.9653C20.8868 22.2982 20.3539 22.3051 20.021 21.9806L13.9756 16.089C13.6427 15.7645 13.6358 15.2317 13.9602 14.8988Z" fill="white"/>
</g>
</svg>
